<svg viewBox="0 0 805 256" xmlns="http://www.w3.org/2000/svg"><defs><linearGradient id="g" x1="0" y1="0" x2="1" y2="1"><stop offset="0%" stop-color="#13B5A6"/><stop offset="52%" stop-color="#3B82F6"/><stop offset="100%" stop-color="#7C4DDE"/></linearGradient><linearGradient id="gt" gradientUnits="userSpaceOnUse" x1="411.0" y1="0" x2="765.5" y2="0"><stop offset="0%" stop-color="#13B5A6"/><stop offset="55%" stop-color="#3B82F6"/><stop offset="100%" stop-color="#7C4DDE"/></linearGradient></defs><rect width="805" height="256" fill="#0E1726"/><g transform="translate(-4 16) scale(0.86)"><path d="M 128.00 30.00 L 212.87 79.00 L 212.87 177.00 L 128.00 226.00 L 43.13 177.00 L 43.13 79.00 Z" fill="none" stroke="url(#g)" stroke-width="11" stroke-linejoin="round"/><path d="M 119.03 82.88 L 116.29 69.15 L 139.71 69.15 L 136.97 82.88 L 153.56 89.75 L 161.33 78.11 L 177.89 94.67 L 166.25 102.44 L 173.12 119.03 L 186.85 116.29 L 186.85 139.71 L 173.12 136.97 L 166.25 153.56 L 177.89 161.33 L 161.33 177.89 L 153.56 166.25 L 136.97 173.12 L 139.71 186.85 L 116.29 186.85 L 119.03 173.12 L 102.44 166.25 L 94.67 177.89 L 78.11 161.33 L 89.75 153.56 L 82.88 136.97 L 69.15 139.71 L 69.15 116.29 L 82.88 119.03 L 89.75 102.44 L 78.11 94.67 L 94.67 78.11 L 102.44 89.75 Z" fill="url(#g)"/><circle cx="128" cy="128" r="27" fill="#ffffff"/><path transform="translate(109.10 140.24) scale(0.01800 -0.01800)" d="M406 860Q480 860 534.5 830.0Q589 800 632.5 760.0Q676 720 716.5 690.0Q757 660 802 660Q859 660 899.5 700.5Q940 741 980 817L1157 737Q1115 644 1064.5 573.0Q1014 502 948.5 461.5Q883 421 794 421Q722 421 667.5 451.0Q613 481 569.0 521.0Q525 561 484.0 591.0Q443 621 398 621Q340 621 299.5 579.0Q259 537 220 465L43 544Q84 628 134.0 700.0Q184 772 250.0 816.0Q316 860 406 860Z" fill="#15294D"/><path transform="translate(125.30 140.24) scale(0.01800 -0.01800)" d="M279 1225 1061 741V515L282 31L139 246L789 628L139 998Z" fill="#15294D"/></g><path transform="translate(222.00 148.00) scale(0.09200 -0.09200)" d="M405 566Q474 566 530.0 531.0Q586 496 618.5 431.0Q651 366 651 280Q651 194 618.5 128.5Q586 63 530.0 27.5Q474 -8 405 -8Q347 -8 302.5 16.0Q258 40 233 78V-266H62V558H233V479Q258 518 302.0 542.0Q346 566 405 566ZM354 417Q303 417 267.5 380.0Q232 343 232 279Q232 215 267.5 178.0Q303 141 354 141Q405 141 441.0 178.5Q477 216 477 280Q477 344 441.5 380.5Q406 417 354 417Z" fill="#EAF1FB"/><path transform="translate(281.89 148.00) scale(0.09200 -0.09200)" d="M446 479V558H617V1Q617 -76 586.5 -138.5Q556 -201 493.5 -238.0Q431 -275 338 -275Q214 -275 137.0 -216.5Q60 -158 49 -58H218Q226 -90 256.0 -108.5Q286 -127 330 -127Q383 -127 414.5 -96.5Q446 -66 446 1V80Q421 41 377.0 16.5Q333 -8 274 -8Q205 -8 149.0 27.5Q93 63 60.5 128.5Q28 194 28 280Q28 366 60.5 431.0Q93 496 149.0 531.0Q205 566 274 566Q333 566 377.5 542.0Q422 518 446 479ZM324 417Q273 417 237.5 380.5Q202 344 202 280Q202 216 237.5 178.5Q273 141 324 141Q375 141 410.5 178.0Q446 215 446 279Q446 343 410.5 380.0Q375 417 324 417Z" fill="#EAF1FB"/><path transform="translate(341.78 148.00) scale(0.09200 -0.09200)" d="M705 -41V-205H85V-41Z" fill="#3B82F6"/><path transform="translate(410.97 154.00) scale(0.09200 -0.09200)" d="M274 566Q329 566 374.5 543.0Q420 520 446 481V740H617V0H446V80Q422 40 377.5 16.0Q333 -8 274 -8Q205 -8 149.0 27.5Q93 63 60.5 128.5Q28 194 28 280Q28 366 60.5 431.0Q93 496 149.0 531.0Q205 566 274 566ZM324 417Q273 417 237.5 380.5Q202 344 202 280Q202 216 237.5 178.5Q273 141 324 141Q375 141 410.5 178.0Q446 215 446 279Q446 343 410.5 380.0Q375 417 324 417Z" fill="url(#gt)"/><path transform="translate(470.86 154.00) scale(0.09200 -0.09200)" d="M613 558V0H442V76Q416 39 371.5 16.5Q327 -6 273 -6Q209 -6 160.0 22.5Q111 51 84.0 105.0Q57 159 57 232V558H227V255Q227 199 256.0 168.0Q285 137 334 137Q384 137 413.0 168.0Q442 199 442 255V558Z" fill="url(#gt)"/><path transform="translate(530.29 154.00) scale(0.09200 -0.09200)" d="M408 564V383H361Q297 383 265.0 355.5Q233 328 233 259V0H62V558H233V465Q263 511 308.0 537.5Q353 564 408 564Z" fill="url(#gt)"/><path transform="translate(567.09 154.00) scale(0.09200 -0.09200)" d="M274 566Q333 566 377.5 542.0Q422 518 446 479V558H617V0H446V79Q421 40 376.5 16.0Q332 -8 273 -8Q205 -8 149.0 27.5Q93 63 60.5 128.5Q28 194 28 280Q28 366 60.5 431.0Q93 496 149.0 531.0Q205 566 274 566ZM324 417Q273 417 237.5 380.5Q202 344 202 280Q202 216 237.5 178.5Q273 141 324 141Q375 141 410.5 178.0Q446 215 446 279Q446 343 410.5 380.0Q375 417 324 417Z" fill="url(#gt)"/><path transform="translate(626.98 154.00) scale(0.09200 -0.09200)" d="M405 566Q474 566 530.0 531.0Q586 496 618.5 431.0Q651 366 651 280Q651 194 618.5 128.5Q586 63 530.0 27.5Q474 -8 405 -8Q346 -8 302.0 15.5Q258 39 233 78V0H62V740H233V479Q257 518 302.0 542.0Q347 566 405 566ZM354 417Q303 417 267.5 380.0Q232 343 232 279Q232 215 267.5 178.0Q303 141 354 141Q405 141 441.0 178.5Q477 216 477 280Q477 344 441.5 380.5Q406 417 354 417Z" fill="url(#gt)"/><path transform="translate(686.88 154.00) scale(0.09200 -0.09200)" d="M233 740V0H62V740Z" fill="url(#gt)"/><path transform="translate(711.44 154.00) scale(0.09200 -0.09200)" d="M585 238H198Q202 186 231.5 158.5Q261 131 304 131Q368 131 393 185H575Q561 130 524.5 86.0Q488 42 433.0 17.0Q378 -8 310 -8Q228 -8 164.0 27.0Q100 62 64.0 127.0Q28 192 28 279Q28 366 63.5 431.0Q99 496 163.0 531.0Q227 566 310 566Q391 566 454.0 532.0Q517 498 552.5 435.0Q588 372 588 288Q588 264 585 238ZM413 333Q413 377 383.0 403.0Q353 429 308 429Q265 429 235.5 404.0Q206 379 199 333Z" fill="url(#gt)"/></svg>
